<svg xmlns:xlink="http://www.w3.org/1999/xlink" class="svg-sprite">
    <symbol id="tv-ico" viewBox="0 0 16 16" style="fill: #000; fill-rule: evenodd;"> 
        <path d="M14.663,4H8.987l2.239-2.688a0.581,0.581,0,0,0,.1.02A0.667,0.667,0,1,0,10.663.666a0.659,0.659,0,0,0,.046.226L8.119,4H7.876L5.287,0.892A0.671,0.671,0,0,0,5.332.666a0.667,0.667,0,1,0-.667.667,0.562,0.562,0,0,0,.1-0.02L7.008,4H1.332A1.334,1.334,0,0,0,0,5.334v9.338A1.333,1.333,0,0,0,1.332,16H14.663A1.333,1.333,0,0,0,16,14.672V5.334A1.334,1.334,0,0,0,14.663,4ZM12,13.337a1.334,1.334,0,0,1-1.333,1.334h-8a1.334,1.334,0,0,1-1.333-1.334V6.668A1.334,1.334,0,0,1,2.666,5.334h8A1.333,1.333,0,0,1,12,6.668v6.669Zm1.964-5.961a0.952,0.952,0,1,1,.952-0.953A0.953,0.953,0,0,1,13.961,7.377Z"/>
    </symbol>
    <symbol id="cup-ico" viewBox="0 0 16 15.656" style="fill: #000; fill-rule: evenodd;">  
        <path  d="M13.3,14.3c-0.6-.043-1.29-0.076-2.033-0.1a6.854,6.854,0,0,0,1.672-2.25,1.58,1.58,0,0,0,1.964.239,1.633,1.633,0,0,0,.536-2.23,1.594,1.594,0,0,0-1.758-.723c0.029-.289.048-0.582,0.048-0.881a0.562,0.562,0,0,0-.559-0.565H2.829a0.562,0.562,0,0,0-.559.565A7.743,7.743,0,0,0,4.728,14.2c-0.742.025-1.429,0.059-2.03,0.1C0.607,14.449,0,14.59,0,15.237s0.608,0.788,2.7.936c1.418,0.1,3.3.155,5.3,0.155s3.883-.055,5.3-0.155c2.091-.148,2.7-0.289,2.7-0.936S15.392,14.449,13.3,14.3ZM13.568,10s0.009,0,.013-0.005a0.931,0.931,0,0,1,1.285.316,0.947,0.947,0,0,1,.11.715,0.936,0.936,0,0,1-.422.584,0.928,0.928,0,0,1-1.284-.315,0.3,0.3,0,0,0-.04-0.043A8.387,8.387,0,0,0,13.568,10ZM3.408,8.92h9.183c-0.22,3.044-2.2,5.435-4.591,5.435S3.628,11.964,3.408,8.92ZM6.963,6.635L7,6.637A0.453,0.453,0,0,0,7.423,6.03a3.208,3.208,0,0,1,.124-2.3,2.938,2.938,0,0,0,.572-2.369A1.075,1.075,0,0,0,7.453.685a0.452,0.452,0,0,0-.274.862,0.221,0.221,0,0,1,.1.126,2.064,2.064,0,0,1-.484,1.564l-0.022.037Q6.7,3.387,6.625,3.508C5.944,4.564,5.74,5.4,6.019,5.978A1.207,1.207,0,0,0,6.963,6.635ZM9.348,6.719H9.379a0.425,0.425,0,0,0,.4-0.57,1.817,1.817,0,0,1,.063-1.286A1.907,1.907,0,0,0,10.2,3.281a0.809,0.809,0,0,0-.5-0.506,0.425,0.425,0,0,0-.49.612,0.419,0.419,0,0,0,.249.2,0.318,0.318,0,0,1-.046-0.016A1.167,1.167,0,0,1,9.13,4.4L9.1,4.446c-0.024.04-.05,0.082-0.078,0.125a1.75,1.75,0,0,0-.382,1.661A0.883,0.883,0,0,0,9.348,6.719Z" transform="translate(0 -0.688)"/>
    </symbol>

    <symbol id="colb-ico" viewBox="0 0 11.656 16" style="fill: #000; fill-rule: evenodd;">  
        <path d="M12.22,13.989L9.155,5.7V3.258a1.474,1.474,0,0,0,.994-1.389v-0.4A1.476,1.476,0,0,0,8.67,0H4.3A1.477,1.477,0,0,0,2.816,1.471v0.4a1.473,1.473,0,0,0,.995,1.388V5.7L0.752,13.973a1.462,1.462,0,0,0,.142,1.376A1.479,1.479,0,0,0,2.122,16h8.722a1.478,1.478,0,0,0,1.228-.65A1.452,1.452,0,0,0,12.22,13.989Zm-8.11-1.88a0.5,0.5,0,1,1,.5.5A0.5,0.5,0,0,1,4.109,12.109Zm3.25,0.437a0.866,0.866,0,1,1-.871.865A0.869,0.869,0,0,1,7.359,12.546Zm-0.742-1.9a0.628,0.628,0,1,1,.629.624A0.627,0.627,0,0,1,6.617,10.648ZM4.789,5.871V2.853l0-.486H4.3a0.5,0.5,0,0,1-.5-0.5v-0.4a0.5,0.5,0,0,1,.5-0.5H8.67a0.5,0.5,0,0,1,.5.5v0.4a0.5,0.5,0,0,1-.505.5H8.176v3.5L9.035,8.192C9.023,8.2,9.013,8.21,9,8.222c-0.639.66-5.308,0.736-5.308,0.736H3.648ZM6.142,7.744A0.678,0.678,0,1,0,5.46,7.066,0.68,0.68,0,0,0,6.142,7.744Z" transform="translate(-0.656)"/>
    </symbol>

    <symbol id="paperplaine-ico" viewBox="0 -0.5 17 17" style="fill: #000; fill-rule: evenodd;">
        <path d="M16.436,0.533A0.163,0.163,0,0,0,16.262.517L0.584,8.466A0.159,0.159,0,0,0,.5,8.622a0.162,0.162,0,0,0,.112.14L5.57,10.327a0.161,0.161,0,0,0,.157-0.034l7.547-6.4-5.8,6.8a0.159,0.159,0,0,0,.076.256l5.824,1.759A0.16,0.16,0,0,0,13.5,12.7a0.162,0.162,0,0,0,.077-0.1L16.492,0.7A0.161,0.161,0,0,0,16.436.533ZM9.257,12.694L7.648,12.2a0.161,0.161,0,0,0-.209.153v3.012a0.161,0.161,0,0,0,.117.154,0.176,0.176,0,0,0,.045.006,0.163,0.163,0,0,0,.136-0.075l1.609-2.522a0.156,0.156,0,0,0,.015-0.14A0.161,0.161,0,0,0,9.257,12.694Z"/>
    </symbol>
</svg>






