<svg xmlns="http://www.w3.org/2000/svg">
    <defs>
      <style>
      .cls-1 {
        fill: #fff;
        fill-rule: evenodd;
        display:none;
      }
      .cls-1:target {display: inline}
      </style>
    </defs>
  
    <svg viewBox="0 0 16 16">
        <path class="cls-1" id="tv-svg" d="M14.663,5H8.987l2.239-2.688a0.581,0.581,0,0,0,.1.02,0.667,0.667,0,1,0-.667-0.667,0.659,0.659,0,0,0,.046.226L8.119,5H7.876L5.287,1.892A0.655,0.655,0,0,0,4.665,1a0.667,0.667,0,0,0,0,1.334,0.562,0.562,0,0,0,.1-0.02L7.008,5H1.332A1.334,1.334,0,0,0,0,6.334v9.338A1.333,1.333,0,0,0,1.332,17H14.663A1.333,1.333,0,0,0,16,15.672V6.334A1.334,1.334,0,0,0,14.663,5ZM12,14.337a1.334,1.334,0,0,1-1.333,1.334h-8a1.334,1.334,0,0,1-1.333-1.334V7.668A1.334,1.334,0,0,1,2.666,6.334h8A1.333,1.333,0,0,1,12,7.668v6.669Zm1.964-5.961a0.952,0.952,0,1,1,.952-0.953A0.953,0.953,0,0,1,13.961,8.377Z" transform="translate(0 -1)"/>
    </svg>
    
    <svg viewBox="0 0 16 16">
        <path class="cls-1" id="cup-svg" d="M29.3,14.3c-0.6-.043-1.29-0.076-2.033-0.1a6.854,6.854,0,0,0,1.671-2.25,1.58,1.58,0,0,0,1.964.239,1.633,1.633,0,0,0,.536-2.23,1.594,1.594,0,0,0-1.758-.723c0.029-.289.048-0.582,0.048-0.881a0.562,0.562,0,0,0-.559-0.565H18.829a0.562,0.562,0,0,0-.559.565A7.743,7.743,0,0,0,20.728,14.2c-0.742.025-1.429,0.059-2.03,0.1-2.091.148-2.7,0.289-2.7,0.936s0.608,0.788,2.7.936c1.418,0.1,3.3.155,5.3,0.155s3.883-.055,5.3-0.155c2.091-.148,2.7-0.289,2.7-0.936S31.392,14.449,29.3,14.3ZM29.568,10s0.009,0,.013-0.005a0.93,0.93,0,0,1,1.285.316,0.947,0.947,0,0,1,.11.715,0.936,0.936,0,0,1-.422.584,0.928,0.928,0,0,1-1.284-.315,0.3,0.3,0,0,0-.04-0.043A8.387,8.387,0,0,0,29.568,10ZM19.408,8.92h9.183C28.371,11.964,26.4,14.355,24,14.355S19.628,11.964,19.408,8.92Zm3.555-2.284,0.038,0a0.453,0.453,0,0,0,.422-0.607,3.209,3.209,0,0,1,.123-2.3,2.938,2.938,0,0,0,.572-2.369A1.076,1.076,0,0,0,23.453.685a0.452,0.452,0,0,0-.274.862,0.221,0.221,0,0,1,.1.126,2.064,2.064,0,0,1-.484,1.564l-0.022.037q-0.068.112-.146,0.234c-0.681,1.056-.885,1.887-0.607,2.47A1.207,1.207,0,0,0,22.963,6.635Zm2.384,0.084h0.031a0.425,0.425,0,0,0,.4-0.57,1.817,1.817,0,0,1,.063-1.286A1.907,1.907,0,0,0,26.2,3.281a0.809,0.809,0,0,0-.5-0.506,0.425,0.425,0,0,0-.49.612,0.419,0.419,0,0,0,.249.2,0.32,0.32,0,0,1-.046-0.016,1.167,1.167,0,0,1-.281.827L25.1,4.446c-0.024.04-.05,0.082-0.078,0.125a1.75,1.75,0,0,0-.382,1.661A0.883,0.883,0,0,0,25.348,6.719Z" transform="translate(-16 -0.688)"/>
    </svg>

    <svg viewBox="0 0 11.656 16">
        <path class="cls-1" id="colb-svg" d="M43.22,13.989L40.155,5.7V3.258a1.474,1.474,0,0,0,.994-1.389v-0.4A1.476,1.476,0,0,0,39.67,0H35.3a1.476,1.476,0,0,0-1.479,1.471v0.4a1.473,1.473,0,0,0,.995,1.388V5.7l-3.059,8.275a1.462,1.462,0,0,0,.142,1.376,1.479,1.479,0,0,0,1.228.65h8.722a1.478,1.478,0,0,0,1.228-.65A1.452,1.452,0,0,0,43.22,13.989Zm-8.11-1.88a0.5,0.5,0,1,1,.5.5A0.5,0.5,0,0,1,35.11,12.109Zm3.25,0.437a0.866,0.866,0,1,1-.871.865A0.869,0.869,0,0,1,38.359,12.546Zm-0.742-1.9a0.628,0.628,0,1,1,.629.624A0.627,0.627,0,0,1,37.617,10.648ZM35.789,5.871V2.853l0-.486H35.3a0.5,0.5,0,0,1-.5-0.5v-0.4a0.5,0.5,0,0,1,.5-0.5H39.67a0.5,0.5,0,0,1,.5.5v0.4a0.5,0.5,0,0,1-.505.5H39.176v3.5l0.858,2.321C40.023,8.2,40.013,8.21,40,8.222c-0.639.66-5.308,0.736-5.308,0.736H34.648Zm1.353,1.874a0.678,0.678,0,1,0-.682-0.678A0.68,0.68,0,0,0,37.142,7.744Z" transform="translate(-31.656)"/>
    </svg>

    <svg viewBox="0 0 17 16">
        <path class="cls-1" id="paperplane-svg" d="M59.436,1.533a0.163,0.163,0,0,0-.173-0.016L43.584,9.466a0.16,0.16,0,0,0-.088.156,0.162,0.162,0,0,0,.112.14l4.962,1.565a0.161,0.161,0,0,0,.157-0.034l7.547-6.4-5.8,6.8a0.159,0.159,0,0,0,.076.256l5.824,1.759A0.16,0.16,0,0,0,56.5,13.7a0.162,0.162,0,0,0,.077-0.1L59.492,1.7A0.161,0.161,0,0,0,59.436,1.533ZM52.257,13.694L50.648,13.2a0.161,0.161,0,0,0-.209.153v3.012a0.161,0.161,0,0,0,.117.154,0.176,0.176,0,0,0,.045.006,0.164,0.164,0,0,0,.136-0.075l1.609-2.522a0.156,0.156,0,0,0,.015-0.14A0.161,0.161,0,0,0,52.257,13.694Z" transform="translate(-43.5 -1.531)"/>
    </svg>
</svg>
