<svg xmlns="http://www.w3.org/2000/svg"><defs><style>.cls-1{fill:#fff;fill-rule:evenodd;display:none}.cls-1:target{display:inline}</style></defs><svg viewBox="0 0 16 16"><path class="cls-1" id="tv-svg" d="M14.663 5H8.987l2.239-2.688a.581.581 0 0 0 .1.02.667.667 0 1 0-.667-.667.659.659 0 0 0 .046.226L8.119 5h-.243L5.287 1.892A.655.655 0 0 0 4.665 1a.667.667 0 0 0 0 1.334.562.562 0 0 0 .1-.02L7.008 5H1.332A1.334 1.334 0 0 0 0 6.334v9.338A1.333 1.333 0 0 0 1.332 17h13.331A1.333 1.333 0 0 0 16 15.672V6.334A1.334 1.334 0 0 0 14.663 5zM12 14.337a1.334 1.334 0 0 1-1.333 1.334h-8a1.334 1.334 0 0 1-1.333-1.334V7.668a1.334 1.334 0 0 1 1.332-1.334h8A1.333 1.333 0 0 1 12 7.668v6.669zm1.964-5.961a.952.952 0 1 1 .952-.953.953.953 0 0 1-.955.954z" transform="translate(0 -1)"/></svg><svg viewBox="0 0 16 16"><path class="cls-1" id="cup-svg" d="M29.3 14.3c-.6-.043-1.29-.076-2.033-.1a6.854 6.854 0 0 0 1.671-2.25 1.58 1.58 0 0 0 1.964.239 1.633 1.633 0 0 0 .536-2.23 1.594 1.594 0 0 0-1.758-.723c.029-.289.048-.582.048-.881a.562.562 0 0 0-.559-.565h-10.34a.562.562 0 0 0-.559.565 7.743 7.743 0 0 0 2.458 5.845c-.742.025-1.429.059-2.03.1-2.091.148-2.7.289-2.7.936s.608.788 2.7.936c1.418.1 3.3.155 5.3.155s3.883-.055 5.3-.155c2.091-.148 2.7-.289 2.7-.936s-.606-.787-2.698-.936zm.268-4.3s.009 0 .013-.005a.93.93 0 0 1 1.285.316.947.947 0 0 1 .11.715.936.936 0 0 1-.422.584.928.928 0 0 1-1.284-.315.3.3 0 0 0-.04-.043A8.387 8.387 0 0 0 29.568 10zm-10.16-1.08h9.183c-.22 3.044-2.191 5.435-4.591 5.435s-4.372-2.391-4.592-5.435zm3.555-2.284h.038a.453.453 0 0 0 .422-.607 3.209 3.209 0 0 1 .123-2.3 2.938 2.938 0 0 0 .572-2.369 1.076 1.076 0 0 0-.665-.675.452.452 0 0 0-.274.862.221.221 0 0 1 .1.126 2.064 2.064 0 0 1-.484 1.564l-.022.037q-.068.112-.146.234c-.681 1.056-.885 1.887-.607 2.47a1.207 1.207 0 0 0 .943.657zm2.384.084h.031a.425.425 0 0 0 .4-.57 1.817 1.817 0 0 1 .063-1.286 1.907 1.907 0 0 0 .359-1.583.809.809 0 0 0-.5-.506.425.425 0 0 0-.49.612.419.419 0 0 0 .249.2.32.32 0 0 1-.046-.016 1.167 1.167 0 0 1-.281.827l-.032.048-.078.125a1.75 1.75 0 0 0-.382 1.661.883.883 0 0 0 .708.487z" transform="translate(-16 -.688)"/></svg><svg viewBox="0 0 11.656 16"><path class="cls-1" id="colb-svg" d="M43.22 13.989L40.155 5.7V3.258a1.474 1.474 0 0 0 .994-1.389v-.4A1.476 1.476 0 0 0 39.67 0H35.3a1.476 1.476 0 0 0-1.479 1.471v.4a1.473 1.473 0 0 0 .995 1.388V5.7l-3.059 8.275a1.462 1.462 0 0 0 .142 1.376 1.479 1.479 0 0 0 1.228.65h8.722a1.478 1.478 0 0 0 1.228-.65 1.452 1.452 0 0 0 .143-1.362zm-8.11-1.88a.5.5 0 1 1 .5.5.5.5 0 0 1-.5-.5zm3.25.437a.866.866 0 1 1-.871.865.869.869 0 0 1 .87-.865zm-.742-1.9a.628.628 0 1 1 .629.624.627.627 0 0 1-.63-.622zm-1.829-4.775V2.367H35.3a.5.5 0 0 1-.5-.5v-.4a.5.5 0 0 1 .5-.5h4.37a.5.5 0 0 1 .5.5v.4a.5.5 0 0 1-.505.5h-.489v3.5l.858 2.321a.545.545 0 0 1-.034.034c-.639.66-5.308.736-5.308.736h-.044zm1.353 1.874a.678.678 0 1 0-.682-.678.68.68 0 0 0 .682.677z" transform="translate(-31.656)"/></svg><svg viewBox="0 0 17 16"><path class="cls-1" id="paperplane-svg" d="M59.436 1.533a.163.163 0 0 0-.173-.016L43.584 9.466a.16.16 0 0 0-.088.156.162.162 0 0 0 .112.14l4.962 1.565a.161.161 0 0 0 .157-.034l7.547-6.4-5.8 6.8a.159.159 0 0 0 .076.256l5.824 1.759a.16.16 0 0 0 .126-.008.162.162 0 0 0 .077-.1l2.915-11.9a.161.161 0 0 0-.056-.167zm-7.179 12.161l-1.609-.494a.161.161 0 0 0-.209.153v3.012a.161.161 0 0 0 .117.154.176.176 0 0 0 .045.006.164.164 0 0 0 .136-.075l1.609-2.522a.156.156 0 0 0 .015-.14.161.161 0 0 0-.104-.094z" transform="translate(-43.5 -1.531)"/></svg></svg>